<svg width="60" height="43" viewBox="0 0 60 43" fill="none" xmlns="http://www.w3.org/2000/svg">
<path fill-rule="evenodd" clip-rule="evenodd" d="M24.4517 7.24802C28.2324 7.10419 32.0014 7.7576 35.5129 9.16624C39.0246 10.5751 42.2007 12.7081 44.8339 15.4252C45.7373 16.3574 46.5678 17.3531 47.3242 18.4L47.3279 18.4013C47.3538 18.4371 47.3788 18.4739 47.4044 18.5098C47.5018 18.646 47.5978 18.7835 47.6926 18.9214C47.7451 18.9978 47.7979 19.0743 47.8496 19.1512C47.9369 19.2811 48.022 19.4127 48.1069 19.544C48.1633 19.6311 48.2205 19.718 48.2758 19.8057C48.3577 19.9354 48.4372 20.067 48.5168 20.1981C48.5669 20.2806 48.6187 20.3624 48.6679 20.4455C48.9233 20.8766 49.1666 21.3152 49.3977 21.7602C49.4046 21.7734 49.4114 21.7869 49.4182 21.8002L39.1784 23.8117C38.7587 23.2565 38.3065 22.7244 37.82 22.2223C36.1409 20.4898 34.1153 19.1303 31.8761 18.232C29.6369 17.3337 27.2332 16.9163 24.8223 17.0081C22.4114 17.0999 20.0467 17.6989 17.8823 18.7647C16.243 19.5721 14.7378 20.6379 13.427 21.9264C11.9027 23.4247 10.6752 25.1916 9.80209 27.1322C9.43182 27.955 8.51043 28.4156 7.65626 28.1251L1.50235 26.0324C0.648197 25.7419 0.186705 24.8116 0.528397 23.9766C1.91123 20.5973 3.96863 17.528 6.5805 14.9606C8.68869 12.8884 11.1175 11.184 13.7649 9.90694C13.9259 9.82929 14.0869 9.752 14.2493 9.67764C14.3527 9.63025 14.4573 9.58541 14.5614 9.53932C14.6813 9.48622 14.8009 9.43253 14.9215 9.38122C15.0327 9.3339 15.1446 9.28825 15.2565 9.24242C15.3836 9.19033 15.511 9.13888 15.6388 9.08877C15.7412 9.04863 15.8442 9.00972 15.9471 8.97081C16.0781 8.9213 16.2094 8.87271 16.3411 8.82527C16.4399 8.7897 16.5387 8.75433 16.6379 8.7199C16.7768 8.67169 16.9164 8.62536 17.056 8.57944C17.1163 8.5596 17.1768 8.53882 17.2373 8.51939L17.2392 8.52002C19.5686 7.77239 21.9948 7.34154 24.4517 7.24802ZM50.6525 24.5583C50.6857 24.645 50.7194 24.7318 50.7516 24.8189C50.7661 24.8581 50.782 24.897 50.7963 24.9362L50.7957 24.9381L50.7945 24.9387C51.4105 26.6257 51.8609 28.3755 52.1307 30.1637C52.69 33.8723 52.4691 37.6517 51.488 41.2595C51.2512 42.1302 50.3182 42.5879 49.4635 42.2988L43.3062 40.2163C42.4515 39.9271 42.0014 39.0005 42.208 38.1223C42.7081 35.9968 42.7996 33.79 42.4724 31.621C42.3862 31.0493 42.2701 30.484 42.1275 29.9266L50.5871 24.3927C50.6087 24.448 50.6313 24.5028 50.6525 24.5583Z" fill="#FAC232"/>
<path d="M32.8672 36.698C33.7214 36.9885 34.6647 36.5311 34.8038 35.6396C35.1011 33.7337 34.809 31.768 33.9453 30.0141C32.8392 27.7681 30.8861 26.0534 28.5157 25.2473C26.1454 24.4413 23.5519 24.6098 21.3058 25.716C19.552 26.5797 18.1221 27.9598 17.1959 29.6518C16.7626 30.4433 17.2315 31.381 18.0858 31.6715L32.8672 36.698Z" fill="#24312D"/>
<path d="M53.6905 21.5727C53.6905 21.5727 29.6278 27.3082 27.7871 28.0426C26.9118 28.401 26.2135 29.0906 25.844 29.9614C25.4746 30.8321 25.4639 31.8135 25.8144 32.692C26.1648 33.5706 26.848 34.2752 27.7153 34.6526C28.5827 35.03 29.5639 35.0496 30.4456 34.7072C32.2854 33.9725 53.6905 21.5727 53.6905 21.5727Z" fill="#24312D"/>
</svg>
