<svg width="1440" height="649" viewBox="0 0 1440 649" fill="none" xmlns="http://www.w3.org/2000/svg">
<g clip-path="url(#clip0_817_5395)">
<rect width="1440" height="958" transform="translate(-0.175781 -309.612)" fill="#F8D448"/>
<path d="M843.172 674.729C860.652 674.727 875.099 660.45 872.086 643.232C865.646 606.422 848.023 572.191 821.238 545.414C786.936 511.121 740.416 491.859 691.912 491.866C643.408 491.873 596.893 511.148 562.6 545.45C535.822 572.235 518.21 606.471 511.78 643.283C508.772 660.502 523.223 674.774 540.703 674.772L843.172 674.729Z" fill="#1A1A1A"/>
<path d="M1245.86 488.461C1245.86 488.461 768.79 533.899 731.501 543.046C713.745 547.574 698.495 558.93 689.069 574.644C679.643 590.358 676.803 609.159 681.168 626.956C685.534 644.753 696.75 660.106 712.377 669.675C728.005 679.244 746.778 682.255 764.615 678.053C801.886 668.897 1245.86 488.461 1245.86 488.461Z" fill="#1A1A1A"/>
</g>
<defs>
<clipPath id="clip0_817_5395">
<rect width="1440" height="958" fill="white" transform="translate(-0.175781 -309.612)"/>
</clipPath>
</defs>
</svg>
