<svg width="199" height="199" viewBox="0 0 199 199" fill="none" xmlns="http://www.w3.org/2000/svg">
<mask id="mask0_817_4715" style="mask-type:luminance" maskUnits="userSpaceOnUse" x="0" y="0" width="199" height="199">
<path d="M0 99.332C0 44.4723 44.4723 0 99.332 0C154.191 0 198.663 44.4723 198.663 99.332C198.663 154.191 154.191 198.663 99.332 198.663C44.4723 198.663 0 154.191 0 99.332Z" fill="white"/>
</mask>
<g mask="url(#mask0_817_4715)">
<path d="M0 99.332C0 44.4723 44.4723 0 99.332 0C154.191 0 198.663 44.4723 198.663 99.332C198.663 154.191 154.191 198.663 99.332 198.663C44.4723 198.663 0 154.191 0 99.332Z" fill="#F8F8F8"/>
<path d="M69.4416 134.727C69.3043 134.727 69.1841 134.693 69.064 134.624C68.7035 134.418 68.5833 133.955 68.8065 133.594C81.2355 112.65 100.669 108.084 110.008 105.886C110.402 105.801 110.814 106.041 110.917 106.453C111.02 106.865 110.763 107.26 110.351 107.363C101.218 109.509 82.1968 113.989 70.094 134.384C69.9395 134.59 69.6991 134.727 69.4416 134.727Z" fill="#000200"/>
<path d="M77.2693 145.542C77.1834 145.542 77.1148 145.525 77.029 145.508C76.6341 145.371 76.4281 144.959 76.5483 144.564L78.0418 140.049C78.1791 139.654 78.5911 139.448 78.986 139.568C79.3808 139.706 79.5868 140.118 79.4667 140.512L77.9732 145.027C77.8701 145.336 77.5783 145.542 77.2693 145.542Z" fill="#000200"/>
<path d="M3.72534 198.211C3.39917 198.211 3.09016 197.988 3.00432 197.645C2.90132 197.25 3.14166 196.838 3.53651 196.735C3.63951 196.7 13.957 193.988 17.0814 190.675C17.3732 190.366 17.8367 190.366 18.1457 190.64C18.4547 190.932 18.4547 191.396 18.1801 191.705C14.7466 195.344 4.36053 198.074 3.91419 198.194C3.84552 198.211 3.77684 198.211 3.72534 198.211Z" fill="#000200"/>
<path d="M-8.27456 210.95C-18.5062 210.95 -23.9997 209.473 -26.0598 206.16C-26.6606 205.216 -26.9696 204.117 -26.9525 202.864C-26.9009 198.349 -18.6951 194.812 -8.27456 194.812C2.19739 194.812 10.3861 198.349 10.3861 202.881C10.3861 204.478 9.61355 205.885 8.12005 207.087C5.08147 209.542 -0.892696 210.95 -8.27456 210.95ZM-8.27456 196.323C-18.5062 196.323 -25.4074 199.722 -25.4417 202.881C-25.4589 203.842 -25.2357 204.649 -24.7894 205.353C-22.5062 209.027 -14.2659 209.439 -8.27456 209.439C-1.33904 209.439 4.44628 208.117 7.17586 205.885C8.32606 204.975 8.8754 203.997 8.8754 202.864C8.8754 199.705 1.99138 196.323 -8.27456 196.323Z" fill="#000200"/>
<path d="M121.749 36.0845C110.659 35.518 104.84 38.5565 101.853 42.917C100.737 44.565 102.213 46.7796 104.153 46.3333C106.35 45.8182 109.114 45.4577 112.067 45.3032C118.573 50.11 126.659 52.0327 134.539 50.6594C137.354 54.0585 137.509 61.1657 137.612 68.2557C137.629 69.4059 138.333 68.8222 139.483 68.8394C140.942 68.8394 142.127 68.805 143.964 69.1312L146.316 69.0797C146.316 69.0797 146.316 69.0797 146.934 57.0627C147.586 45.0457 139.775 37.0115 121.749 36.0845Z" fill="#000200"/>
<path d="M138.402 69.3555C142.848 69.3555 145.99 70.1967 147.501 71.7761C148.222 72.5486 148.565 73.4757 148.514 74.5229C148.479 75.1752 148.256 76.4112 147.072 77.4241C145.767 78.5571 143.707 79.0378 141.115 78.7975C140.685 78.7631 140.342 79.055 140.291 79.467L137.647 106.54C137.612 106.883 137.818 107.209 138.162 107.329C138.213 107.346 138.78 107.535 139.758 107.93C140.102 107.518 140.445 107.123 140.806 106.728C140.119 106.437 139.569 106.231 139.209 106.093L141.733 80.3253C145.08 80.4627 147.003 79.467 148.067 78.54C149.252 77.5099 149.956 76.1022 150.024 74.5744C150.076 73.5443 149.87 72.0508 148.599 70.7117C146.78 68.789 143.346 67.8105 138.402 67.8105C137.99 67.8105 137.647 68.1538 137.647 68.5659C137.664 69.0294 137.99 69.3555 138.402 69.3555Z" fill="#000200"/>
<path d="M111.21 75.3628C109.304 75.3628 107.811 74.8134 106.969 73.8177C106.386 73.131 106.163 72.2384 106.317 71.277C106.678 69.1483 109.665 68.3929 111.055 68.1354V61.9037C111.055 61.4917 111.399 61.1484 111.811 61.1484C112.223 61.1484 112.566 61.4917 112.566 61.9037V68.7878C112.566 69.1654 112.274 69.4916 111.896 69.5431C110.643 69.6805 107.999 70.35 107.811 71.5345C107.725 72.0667 107.828 72.4959 108.12 72.8564C108.652 73.4916 109.819 73.8692 111.21 73.8692C111.622 73.8692 111.965 74.2126 111.965 74.6246C111.965 75.0194 111.622 75.3628 111.21 75.3628Z" fill="#000200"/>
<path d="M104.755 64.5644L104.909 66.058C105.115 67.9807 102.128 68.3069 101.922 66.367L101.767 64.8734C101.561 62.9507 104.549 62.6417 104.755 64.5644Z" fill="#000200"/>
<path d="M125.029 65.0458L125.184 66.5393C125.39 68.462 122.402 68.7882 122.196 66.8483L122.042 65.3548C121.836 63.4321 124.823 63.1231 125.029 65.0458Z" fill="#000200"/>
<path d="M121.716 61.5877C122.952 61.7251 124.136 61.9311 125.321 62.2916C126.248 62.5834 125.613 63.9396 124.703 63.665C123.656 63.3388 122.557 63.2015 121.475 63.0813C120.514 62.9611 120.754 61.4676 121.716 61.5877Z" fill="#000200"/>
<path d="M99.999 62.1538C100.771 61.656 101.63 61.2783 102.368 60.7289C103.123 60.1453 104.188 61.2268 103.415 61.8105C102.574 62.4628 101.63 62.892 100.737 63.4757C99.93 63.9907 99.192 62.686 99.999 62.1538Z" fill="#000200"/>
<path d="M124.26 80.8687C123.144 81.0403 121.651 81.5554 121.565 82.8944C121.513 83.8557 120.003 83.8557 120.054 82.8944C120.174 80.8515 121.977 79.7185 123.865 79.4266C124.809 79.2721 125.221 80.7142 124.26 80.8687Z" fill="#000200"/>
<path d="M141.835 41.8529C137.44 37.9903 130.694 35.7929 121.784 35.3465C106.986 34.574 99.072 40.1877 98.2823 52.033C98.1106 54.5566 97.9389 56.9771 97.7673 59.3118C96.1535 81.8694 95.1922 95.483 102.986 100.53C104.892 101.766 107.226 102.624 109.595 103.225C109.595 103.242 109.595 103.277 109.595 103.294L109.252 109.92C109.235 110.144 109.338 110.367 109.492 110.521C109.63 110.641 109.819 110.71 109.99 110.71C110.025 110.71 110.076 110.71 110.11 110.693C110.505 110.624 119.776 109.114 121.956 104.118C122.059 103.878 122.042 103.62 121.887 103.397C121.75 103.191 121.492 103.036 121.252 103.054C121.132 103.036 109.853 103.157 103.81 99.2426C96.7544 94.6761 97.7158 81.3888 99.278 59.3805C99.45 57.0458 99.621 54.6252 99.793 52.1017C100.531 41.0975 107.724 36.0847 121.733 36.8229C130.299 37.2693 136.737 39.3293 140.874 42.9687C144.737 46.3507 146.539 51.0888 146.23 57.0115C145.698 67.3289 145.166 69.1314 145.08 69.3718C144.908 69.6636 144.96 70.0585 145.217 70.2988C145.526 70.5735 145.99 70.5563 146.282 70.2645C146.814 69.6808 147.312 65.2517 147.724 57.0973C148.033 50.694 146.058 45.561 141.835 41.8529Z" fill="#000200"/>
<path d="M114.265 133.87C114.214 133.87 114.162 133.87 114.111 133.853C113.853 133.801 113.647 133.612 113.544 133.372C112.033 129.166 109.372 110.849 109.252 110.076C109.184 109.664 109.475 109.286 109.887 109.218C110.299 109.149 110.677 109.441 110.746 109.853C110.763 110.025 113.098 125.921 114.591 131.638L137.853 106.145C138.127 105.836 138.608 105.819 138.917 106.093C139.226 106.368 139.243 106.849 138.969 107.158L114.814 133.629C114.66 133.784 114.471 133.87 114.265 133.87Z" fill="#000200"/>
<path d="M134.35 41.0288C130.745 35.1748 123.655 31.9302 116.84 33.3723C114.128 33.9388 113.149 33.2693 110.694 32.2736C108.565 31.4152 106.316 30.8659 104.033 30.6942C100.806 30.4539 96.8059 30.7457 94.7801 33.6298C89.8188 40.6683 99.484 46.2648 105.029 47.6382C113.75 49.8012 123.02 47.93 130.368 42.8314C130.419 42.797 130.453 42.7455 130.488 42.694C131.707 42.6254 132.926 42.5567 134.144 42.488C135.037 42.4537 135.106 41.1833 134.35 41.0288Z" fill="#000200"/>
<path d="M195.861 171.842C186.076 125.13 144.565 108.152 139.209 106.144C138.711 106.418 138.214 106.676 137.716 106.95C137.802 107.139 137.956 107.311 138.179 107.38C138.643 107.534 184.17 123.311 194.402 172.168C199.414 196.082 197.063 214.554 187.621 225.592C181.063 233.266 171.106 237.18 159.604 236.597C145.321 235.876 131.724 223.756 121.802 214.897C115.639 209.404 110.781 205.061 107.467 204.906C99.433 204.528 98.2314 203.533 96.858 200.769C96.6692 200.391 96.2228 200.254 95.8451 200.425C95.4674 200.614 95.3301 201.061 95.5018 201.438C97.2185 204.872 99.0897 206.005 107.381 206.4C110.163 206.537 115.089 210.932 120.789 216.013C130.883 225.026 144.703 237.352 159.518 238.107C160.291 238.142 161.046 238.159 161.801 238.159C172.823 238.159 182.333 234.09 188.754 226.571C198.505 215.138 200.959 196.219 195.861 171.842Z" fill="#000200"/>
<path d="M97.544 196.185C94.248 196.185 91.6214 195.515 89.6815 194.193C87.8103 192.923 86.6773 191.069 86.2996 188.7C86.2309 188.288 86.5056 187.91 86.9176 187.842C87.3296 187.773 87.7073 188.048 87.7759 188.46C88.085 190.399 89.012 191.91 90.5227 192.94C93.3553 194.88 98.2822 195.172 104.754 193.798C105.149 193.713 105.561 193.97 105.647 194.382C105.733 194.794 105.475 195.189 105.063 195.275C102.265 195.893 99.759 196.185 97.544 196.185Z" fill="#000200"/>
<path d="M102.299 202.177C95.1407 202.177 90.557 199.465 89.7673 194.572C89.6987 194.16 89.9733 193.782 90.3854 193.714C90.7974 193.645 91.175 193.92 91.2437 194.332C92.0334 199.259 97.7157 201.525 106.437 200.392C106.849 200.34 107.226 200.632 107.278 201.044C107.329 201.456 107.037 201.834 106.625 201.885C105.098 202.074 103.656 202.177 102.299 202.177Z" fill="#000200"/>
<path d="M137.852 193.541C138.298 203.275 133.663 212.476 125.475 217.832C124.668 218.365 125.423 219.669 126.23 219.137C134.539 213.712 139.466 204.528 139.38 194.657C138.831 194.331 138.333 193.953 137.852 193.541Z" fill="#000200"/>
<path d="M165.166 184.151C160.977 170.572 153.492 161.01 153.423 160.924C153.235 160.684 152.908 160.581 152.617 160.667C152.325 160.752 152.102 161.01 152.084 161.319C151.329 169.044 156.754 185.816 156.994 186.52C157.114 186.915 157.544 187.138 157.938 187.001C158.333 186.864 158.556 186.452 158.419 186.057C158.419 186.022 158.265 185.61 158.041 184.872L160.29 175.636C161.526 178.349 162.728 181.353 163.724 184.615C166.385 193.25 163.981 200.082 160.616 202.76C158.247 204.649 155.346 204.752 152.428 203.087C141.99 197.078 121.819 182.143 117.596 175.825C112.995 168.941 105.029 167.997 104.686 167.963C104.411 167.928 104.119 168.066 103.965 168.306C103.81 168.546 103.81 168.855 103.948 169.096L109.888 179.241C107.896 180.014 102.403 181.971 96.1024 182.812C91.5016 183.43 89.0982 182.143 87.1583 181.095C85.785 180.357 84.4803 179.671 82.8494 179.962C81.2013 180.254 80.7722 181.216 80.6692 181.748C80.1885 184.048 83.4331 187.138 86.6261 189.267C91.9651 192.821 103.364 190.417 103.845 190.314C104.257 190.228 104.514 189.834 104.428 189.422C104.343 189.009 103.948 188.752 103.536 188.838C103.416 188.855 92.2741 191.224 87.4673 188.014C83.7249 185.525 81.9395 183.087 82.1627 182.057C82.2314 181.765 82.5576 181.559 83.1412 181.439C84.2571 181.233 85.1841 181.731 86.4717 182.417C88.4802 183.499 91.2441 184.975 96.3256 184.289C104.428 183.19 111.021 180.409 111.295 180.289C111.501 180.203 111.639 180.031 111.707 179.825C111.776 179.619 111.759 179.396 111.639 179.207L106.111 169.765C108.566 170.383 113.321 172.117 116.342 176.649C121.029 183.688 142.076 198.846 151.672 204.391C153.269 205.318 154.9 205.765 156.462 205.765C158.282 205.765 160.016 205.147 161.544 203.945C165.44 200.82 168.05 193.507 165.166 184.151Z" fill="#000200"/>
<path d="M152.067 204.476C151.947 204.476 151.81 204.442 151.69 204.373C151.329 204.167 151.209 203.704 151.415 203.343C154.522 197.884 159.792 174.519 159.844 174.279C159.93 173.867 160.342 173.627 160.737 173.713C161.149 173.798 161.389 174.21 161.303 174.605C161.08 175.584 155.93 198.433 152.72 204.081C152.582 204.339 152.325 204.476 152.067 204.476Z" fill="#000200"/>
<path d="M63.4835 116.341C63.3119 116.135 63.0372 116.049 62.7797 116.1L17.8533 124.839L-13.305 130.899C-13.5454 130.95 -13.7342 131.105 -13.8372 131.328L-24.498 154.126C-24.5667 154.28 -24.5838 154.435 -24.5495 154.606L-20.4637 174.366L-29.219 191.773C-29.3391 192.014 -29.322 192.288 -29.1846 192.511C-29.0473 192.735 -28.8069 192.855 -28.5494 192.855H-28.5323L50.2133 191.327C50.5567 191.327 50.8485 191.087 50.9344 190.76L55.6725 172.409C55.6897 172.323 55.7068 172.237 55.6897 172.151L54.3678 156.512L53.6296 147.74L63.6552 117.096C63.7239 116.822 63.6552 116.547 63.4835 116.341ZM52.1361 147.396C52.1017 147.499 52.0846 147.602 52.1017 147.688L52.6511 154.263L54.1618 172.134L49.5953 189.816L-27.3306 191.31L-19.0045 174.778C-18.9358 174.623 -18.9015 174.452 -18.9359 174.28L-23.0216 154.521L-12.6355 132.306L19.9477 125.972L61.8183 117.817L52.1361 147.396Z" fill="#000200"/>
<path d="M104.616 169.438C104.341 169.438 104.083 169.283 103.946 169.026L96.8561 155.052L72.6676 143.979C72.4959 143.893 72.3414 143.756 72.2728 143.567L62.2128 117.13C62.0583 116.735 62.2643 116.306 62.642 116.151C63.0368 115.997 63.466 116.203 63.6205 116.58L73.5775 142.743L97.7316 153.799C97.8861 153.867 98.0063 153.988 98.0921 154.142L105.285 168.356C105.474 168.734 105.319 169.18 104.959 169.369C104.856 169.404 104.736 169.438 104.616 169.438Z" fill="#000200"/>
<path d="M75.5351 262.347C75.2947 262.347 75.0716 262.227 74.9171 262.038C74.7797 261.832 74.7282 261.574 74.8141 261.351L78.3676 251.188L42.9004 222.519C42.7287 222.382 42.6257 222.176 42.6257 221.935L42.3338 195.927L36.9777 191.378C36.6687 191.103 36.6172 190.64 36.8919 190.314C37.1665 190.005 37.6301 189.953 37.9562 190.228L43.5699 195C43.7416 195.138 43.8274 195.344 43.8274 195.567L44.1192 221.575L79.7239 250.364C79.9642 250.57 80.0672 250.896 79.9642 251.205L76.5994 260.853L136.066 259.995L141.131 242.296L115.105 214.485C114.968 214.348 114.899 214.159 114.899 213.97V210.502C114.899 210.09 115.243 209.747 115.655 209.747C116.067 209.747 116.41 210.09 116.41 210.502V213.678L142.538 241.575C142.71 241.763 142.779 242.038 142.71 242.296L137.388 260.939C137.302 261.265 137.011 261.471 136.684 261.489L75.5351 262.347Z" fill="#000200"/>
<path d="M89.7663 192.665C89.6118 192.562 89.4573 192.459 89.2856 192.373L43.0374 194.828C42.6254 194.845 42.2992 195.206 42.3335 195.618C42.3507 196.012 42.694 196.321 43.0889 196.321C43.106 196.321 43.1232 196.321 43.1232 196.321L89.7492 193.849C90.0582 193.832 90.3157 193.626 90.4187 193.352C90.2642 193.249 90.1097 193.146 89.9552 193.025C89.835 192.922 89.7835 192.802 89.7663 192.665Z" fill="#000200"/>
<path d="M53.7492 159.07C53.3715 159.07 53.0281 158.778 52.9938 158.383C52.9595 157.971 53.2685 157.611 53.6805 157.576L97.3365 153.731C97.7657 153.697 98.109 154.006 98.1434 154.418C98.1777 154.83 97.8687 155.19 97.4567 155.225L53.8007 159.07C53.8007 159.07 53.7835 159.07 53.7492 159.07Z" fill="#000200"/>
<path d="M-19.6742 175.207C-20.0862 175.207 -20.4124 174.881 -20.4295 174.486C-20.4467 174.074 -20.1205 173.731 -19.7085 173.714L54.8827 171.465C55.2947 171.465 55.638 171.774 55.6552 172.186C55.6724 172.598 55.3462 172.941 54.9342 172.958L-19.657 175.207C-19.657 175.207 -19.657 175.207 -19.6742 175.207Z" fill="#000200"/>
<path d="M53.7504 146.521C53.3727 146.521 53.0466 146.247 53.0122 145.869C52.9607 145.457 53.2526 145.079 53.6646 145.028L72.8917 142.556C73.3209 142.504 73.6814 142.796 73.7329 143.208C73.7844 143.62 73.4926 143.998 73.0806 144.049L53.8534 146.521C53.8191 146.504 53.7848 146.521 53.7504 146.521Z" fill="#000200"/>
<path d="M63.3629 183.944C63.2599 183.944 63.1397 183.927 63.0367 183.875C62.659 183.686 62.5045 183.24 62.6934 182.862L72.307 163.12C72.4958 162.743 72.9421 162.588 73.3198 162.777C73.6975 162.966 73.852 163.412 73.6632 163.79L64.0496 183.532C63.9123 183.789 63.6547 183.944 63.3629 183.944Z" fill="#000200"/>
<path d="M78.7619 171.859C78.367 171.859 78.0408 171.55 78.0065 171.155C77.9722 170.743 78.2812 170.383 78.7104 170.348L93.3539 169.284C93.7659 169.249 94.1264 169.558 94.1608 169.988C94.1951 170.4 93.8861 170.76 93.4569 170.795L78.8134 171.859C78.7962 171.859 78.779 171.859 78.7619 171.859Z" fill="#000200"/>
<path d="M14.5224 167.602C14.3851 167.602 14.2478 167.568 14.1104 167.482C13.7671 167.259 13.6641 166.795 13.8873 166.452L20.5824 155.98C20.8056 155.637 21.2691 155.534 21.6125 155.757C21.9558 155.98 22.0588 156.444 21.8356 156.787L15.1405 167.259C15.0031 167.482 14.7628 167.602 14.5224 167.602Z" fill="#000200"/>
<path d="M-16.1548 164.203C-16.5496 164.203 -16.8758 163.894 -16.9101 163.499C-16.9445 163.087 -16.6183 162.727 -16.2063 162.71L12.8748 160.873C13.2869 160.856 13.6474 161.165 13.6645 161.577C13.6989 161.989 13.3727 162.349 12.9607 162.366L-16.1204 164.203C-16.1376 164.203 -16.1376 164.203 -16.1548 164.203Z" fill="#000200"/>
<path d="M17.8705 138.091C17.4929 138.091 17.1667 137.816 17.1324 137.421C17.0809 137.009 17.3727 136.631 17.7847 136.58L26.8661 135.516C27.2781 135.464 27.6558 135.756 27.7073 136.168C27.7588 136.58 27.467 136.958 27.055 137.009L17.9735 138.073C17.922 138.091 17.8877 138.091 17.8705 138.091Z" fill="#000200"/>
<path d="M32.463 135.962C32.0854 135.962 31.7592 135.67 31.7249 135.292C31.6733 134.88 31.9824 134.502 32.3944 134.468L43.3127 133.232C43.7418 133.181 44.1023 133.49 44.1367 133.902C44.1882 134.314 43.8792 134.691 43.4672 134.726L32.5489 135.962C32.5145 135.962 32.4974 135.962 32.463 135.962Z" fill="#000200"/>
<path d="M35.4326 182.675H17.8706C17.4586 182.675 17.1152 182.331 17.1152 181.919C17.1152 181.507 17.4586 181.164 17.8706 181.164H35.4326C35.8446 181.164 36.1879 181.507 36.1879 181.919C36.1879 182.331 35.8446 182.675 35.4326 182.675Z" fill="#000200"/>
<path d="M43.6037 188.408H36.2905C35.8785 188.408 35.5352 188.065 35.5352 187.653C35.5352 187.241 35.8785 186.897 36.2905 186.897H43.1059L46.4534 178.211H39.6896C39.2776 178.211 38.9343 177.868 38.9343 177.456C38.9343 177.043 39.2776 176.7 39.6896 176.7H47.5521C47.7925 176.7 48.0328 176.82 48.1702 177.026C48.3075 177.232 48.3418 177.49 48.256 177.73L44.3247 187.927C44.2046 188.219 43.9127 188.408 43.6037 188.408Z" fill="#000200"/>
<path d="M-23.8114 155.191C-24.1891 155.191 -24.5324 154.899 -24.5667 154.504C-24.6011 154.092 -24.2921 153.732 -23.88 153.68L52.7883 146.865C53.2175 146.831 53.5609 147.14 53.6124 147.552C53.6467 147.964 53.3377 148.324 52.9257 148.376L-23.7427 155.191C-23.777 155.191 -23.7942 155.191 -23.8114 155.191Z" fill="#000200"/>
</g>
</svg>
