<svg width="199" height="199" viewBox="0 0 199 199" fill="none" xmlns="http://www.w3.org/2000/svg">
<mask id="mask0_817_4758" style="mask-type:luminance" maskUnits="userSpaceOnUse" x="0" y="0" width="199" height="199">
<path d="M0 99.3317C0 44.4723 44.4723 0 99.3317 0C154.191 0 198.663 44.4723 198.663 99.3317C198.663 154.192 154.191 198.664 99.3317 198.664C44.4723 198.664 0 154.192 0 99.3317Z" fill="white"/>
</mask>
<g mask="url(#mask0_817_4758)">
<path d="M0 99.3317C0 44.4723 44.4723 0 99.3317 0C154.191 0 198.663 44.4723 198.663 99.3317C198.663 154.192 154.191 198.664 99.3317 198.664C44.4723 198.664 0 154.192 0 99.3317Z" fill="#F8F8F8"/>
<path d="M174.672 187.374C165.79 194.791 161.137 197.78 148.391 202.912C136.294 207.762 122.956 210.441 108.97 210.723C108.208 210.751 107.447 210.751 106.686 210.751C63.4861 210.751 26.4614 184.414 10.7266 146.91C10.7266 146.91 10.7266 106.727 53.8422 109.659L128.934 126.409C157.161 137.942 173.939 186.077 174.672 187.374Z" fill="#F8F8F8"/>
<path d="M106.686 211.907C64.1908 211.907 26.0946 186.585 9.6549 147.361C9.5985 147.22 9.57031 147.05 9.57031 146.909C9.57031 146.204 9.71131 129.285 21.7802 118.006C29.5066 110.787 40.3067 107.572 53.9266 108.503L129.188 125.281C146.248 132.218 162.519 153.621 175.18 185.541C175.462 186.246 175.631 186.669 175.716 186.838C175.941 187.318 175.857 187.938 175.434 188.277C166.579 195.665 161.757 198.795 148.842 203.983C136.463 208.946 123.069 211.597 108.998 211.879C108.208 211.907 107.447 211.907 106.686 211.907ZM11.9108 146.712C28.0403 184.921 65.206 209.595 106.686 209.595C107.419 209.623 108.18 209.595 108.942 209.566C122.731 209.285 135.843 206.69 147.968 201.84C160.376 196.849 164.944 193.973 173.291 187.036C173.206 186.838 173.121 186.641 173.037 186.387C160.601 155.059 144.782 134.135 128.511 127.481L53.5882 110.787C40.8143 109.941 30.6064 112.93 23.3876 119.698C12.7567 129.652 11.9672 144.682 11.9108 146.712Z" fill="#000200"/>
<path d="M121.068 58.5904C118.445 45.9575 110.268 33.6066 82.7744 38.8515C55.2808 44.0964 44.9883 58.0829 48.4849 76.4119C51.9816 94.7409 53.0813 95.6433 53.0813 95.6433C48.7951 98.153 48.1748 101.396 48.6259 103.821C49.2463 107.121 52.3481 110.73 59.0594 110.251L64.3607 130.046L109.591 140.282C114.751 138.759 120.532 136.419 124.508 133.007C135.956 123.081 129.414 98.8015 121.068 58.5904Z" fill="#F8F8F8"/>
<path d="M109.591 141.439C109.083 141.439 108.632 141.1 108.463 140.593C108.265 139.973 108.632 139.324 109.252 139.155C115.625 137.265 120.503 134.897 123.718 132.105C133.588 123.589 129.301 103.371 122.224 69.8988C121.462 66.3458 120.701 62.6518 119.883 58.8168C116.415 42.0669 104.318 35.8914 82.9433 39.9802C57.5365 44.8303 45.9751 57.3505 49.5845 76.1871C52.6017 91.9501 53.7861 94.6007 53.9835 94.9391C54.1527 95.1647 54.2373 95.4467 54.2091 95.7285C54.1809 96.0951 53.9553 96.4618 53.6451 96.6592C49.7537 98.9433 49.3871 101.707 49.7537 103.625C50.3177 106.557 53.0529 109.546 58.9746 109.095C59.595 109.039 60.1872 109.518 60.2153 110.167C60.2717 110.815 59.7924 111.379 59.1438 111.407C51.6712 111.943 48.1746 107.77 47.4696 104.048C47.0748 102.017 47.1594 98.2383 51.6148 95.1929C50.5997 92.5422 49.1615 86.3384 47.3286 76.6382C43.4936 56.6172 56.0138 42.7719 82.5486 37.6961C105.135 33.3818 118.473 40.3186 122.224 58.3374C123.013 62.1724 123.803 65.8664 124.536 69.4194C131.783 103.737 136.154 124.463 125.269 133.882C121.801 136.899 116.64 139.409 109.929 141.411C109.816 141.439 109.703 141.439 109.591 141.439Z" fill="#000200"/>
<path d="M114.779 45.1128C109.281 39.0501 99.6934 35.6099 82.7743 38.8245C55.2808 44.0694 44.9883 58.0559 48.4849 76.3849C51.9816 94.7139 51.9816 94.7139 51.9816 94.7139L55.591 94.291C58.3544 93.4168 60.1873 93.2194 62.415 92.9092C64.1633 92.6555 65.3759 93.3886 65.1503 91.6121C64.9247 89.8356 64.7273 88.0591 64.5299 86.3108C68.1111 84.9009 71.2975 82.363 73.1022 78.951C74.9069 75.4544 73.779 70.435 69.1827 70.435C68.2239 70.435 67.8291 71.3938 68.1675 72.1833C68.9571 74.0445 68.9853 75.9055 68.4213 77.5129C67.8291 78.951 66.673 80.1071 65.0939 80.8121C64.8401 80.9249 64.6709 81.1223 64.5863 81.3761C64.4171 81.4888 64.2479 81.5734 64.0787 81.658C63.4866 74.411 63.6558 67.9254 66.1372 63.893C78.5446 64.3442 90.5571 59.6914 99.5525 50.8935C104.148 50.4987 108.463 50.4705 111.931 50.7807C115.033 51.1191 116.838 47.4251 114.779 45.1128Z" fill="#000200"/>
<path d="M107.137 96.97C106.573 96.97 106.065 96.5471 105.981 95.9549C105.896 95.3063 106.347 94.7142 106.967 94.6296C109.139 94.3194 110.831 93.5016 111.507 92.4301C111.902 91.8097 111.959 91.1329 111.705 90.3152C111.141 88.5387 106.967 88.0592 104.994 88.1439C104.373 88.1157 103.894 87.7209 103.809 87.1288L102.343 76.5543C102.258 75.9058 102.709 75.3136 103.33 75.229C103.95 75.1444 104.542 75.5956 104.655 76.2159L105.981 85.8034C108.18 85.888 112.946 86.4238 113.932 89.6102C114.384 91.0766 114.243 92.4583 113.481 93.6426C112.41 95.3345 110.21 96.5189 107.278 96.9135C107.221 96.9417 107.193 96.97 107.137 96.97Z" fill="#000200"/>
<path d="M114.919 78.9796L115.004 81.32C115.088 84.3091 119.769 84.1681 119.657 81.1791L119.572 78.8386C119.487 75.8495 114.806 75.9905 114.919 78.9796Z" fill="#000200"/>
<path d="M83.8731 84.0265L83.9577 86.367C84.0423 89.356 88.7232 89.2151 88.6104 86.226L88.5258 83.8855C88.4412 80.8683 83.7603 81.0375 83.8731 84.0265Z" fill="#000200"/>
<path d="M88.3785 108.223C90.155 108.251 92.5519 108.73 92.9467 110.761C93.2287 112.227 95.5691 111.917 95.2589 110.45C94.6386 107.32 91.6213 105.967 88.6605 105.91C87.1942 105.91 86.884 108.223 88.3785 108.223Z" fill="#000200"/>
<path d="M49.0489 79.3454C62.3022 71.478 78.5164 67.8968 93.0104 63.7235C102.146 61.0728 111.395 58.8169 120.701 57.0122C117.712 44.9432 109.111 33.8048 82.7744 38.8524C55.2808 44.0973 44.9883 58.0838 48.4849 76.4128C48.6541 77.4561 48.8515 78.4149 49.0489 79.3454Z" fill="#F8F8F8"/>
<path d="M49.0487 80.5301C48.8795 80.5301 48.7103 80.5019 48.5693 80.4173C48.231 80.2763 47.9772 79.9379 47.8926 79.5713L47.3286 76.6105C43.4936 56.5895 56.0138 42.7441 82.5486 37.6683C104.459 33.4668 117.684 39.896 121.829 56.7023C121.913 57.0125 121.857 57.3509 121.688 57.6047C121.519 57.8867 121.237 58.0559 120.926 58.1123C112.072 59.8324 102.795 62.0882 93.3486 64.7953C90.8389 65.5285 88.2729 66.2334 85.6786 66.9384C73.2995 70.3504 60.4973 73.8752 49.6691 80.3045C49.4435 80.4737 49.2461 80.5301 49.0487 80.5301ZM94.6457 38.7681C91.1209 38.7681 87.2295 39.1911 82.9715 39.9806C57.5647 44.8308 46.0033 57.3509 49.6127 76.1875L49.8665 77.5128C60.6383 71.4501 73.0175 68.0381 85.0018 64.7389C87.5961 64.0339 90.1622 63.329 92.6718 62.5958C101.751 59.9734 110.69 57.7739 119.235 56.082C115.963 44.4924 107.842 38.7681 94.6457 38.7681Z" fill="#000200"/>
<path d="M91.3183 210.78C91.1491 210.78 90.9517 210.751 90.7825 210.639C90.2186 210.357 89.993 209.652 90.275 209.06C90.3314 208.975 94.7303 200.374 102.4 180.212C107.899 165.831 114.102 149.504 110.916 143.216C110.296 142.003 109.309 141.214 107.955 140.847C89.288 135.743 85.7632 122.8 83.6765 115.074C82.9998 112.564 82.2948 109.97 81.4489 109.97C81.1387 109.942 80.8567 110.055 80.6311 110.478C78.8828 113.692 82.323 126.071 88.3293 134.813C88.6959 135.349 88.5549 136.082 88.0191 136.448C87.4833 136.815 86.7502 136.674 86.3836 136.138C80.7157 127.904 75.9502 114.143 78.5444 109.378C79.1648 108.222 80.1799 107.629 81.477 107.658C84.0431 107.714 84.8327 110.562 85.9042 114.482C87.8781 121.729 91.1773 133.882 108.547 138.62C110.578 139.184 112.072 140.368 112.974 142.201C116.64 149.42 110.493 165.493 104.571 181.087C96.8452 201.39 92.3899 210.075 92.3335 210.159C92.1643 210.554 91.7413 210.78 91.3183 210.78Z" fill="#000200"/>
<path d="M80.2649 134.672C79.8983 134.672 79.5035 134.475 79.278 134.136C73.4973 125.423 69.0701 111.239 69.8315 106.615C70.4236 103.118 72.2001 102.554 73.2153 102.526C76.0915 102.357 79.278 106.699 80.1239 110.534C80.2649 111.154 79.8701 111.775 79.2498 111.916C78.6294 112.057 78.009 111.662 77.868 111.042C77.1067 107.658 74.456 104.753 73.2999 104.866C72.8205 104.866 72.3693 105.684 72.1719 107.009C71.5516 110.647 75.5558 124.239 81.2519 132.867C81.6184 133.403 81.4492 134.136 80.9135 134.475C80.7161 134.616 80.4905 134.672 80.2649 134.672Z" fill="#000200"/>
<path d="M72.7062 133.91C72.3396 133.91 71.973 133.741 71.7474 133.403C66.1923 125.31 63.2314 112.31 63.2314 108.785C63.2314 105.909 63.739 102.215 66.1077 100.946C67.574 100.157 69.4069 100.467 71.5218 101.877C72.0576 102.243 72.1986 102.948 71.8602 103.484C71.4936 104.02 70.7886 104.161 70.2529 103.822C69.3223 103.202 68.0534 102.582 67.2356 103.005C66.2205 103.54 65.6001 105.768 65.5719 108.785C65.5719 111.718 68.3353 124.294 73.6649 132.077C74.0314 132.613 73.8905 133.346 73.3547 133.685C73.1573 133.854 72.9318 133.91 72.7062 133.91Z" fill="#000200"/>
<path d="M51.3322 195.975C51.163 195.975 50.9656 195.946 50.7964 195.862C50.2325 195.58 50.0069 194.875 50.2889 194.283L52.291 190.363C58.2972 178.689 72.3401 151.308 69.9432 146.458C64.9803 136.363 61.2017 122.912 59.5662 117.16L59.1714 115.75C56.7463 107.234 56.8309 102.017 59.4816 100.212C61.1171 99.0841 63.4012 99.5353 65.8826 101.453C66.3902 101.848 66.503 102.581 66.1082 103.089C65.7134 103.596 64.9803 103.709 64.4727 103.314C62.8936 102.102 61.5119 101.679 60.8069 102.158C60.3839 102.44 58.3818 104.442 61.4273 115.129L61.822 116.539C63.4294 122.236 67.1798 135.545 72.0299 145.443C74.7088 150.913 64.7829 171.16 54.3776 191.463L52.3755 195.382C52.1782 195.749 51.7552 195.975 51.3322 195.975Z" fill="#000200"/>
<path d="M124.281 65.0775C104.909 65.1057 48.5124 87.5235 48.5124 87.5235L45.0439 76.6671C45.0439 76.6671 100.849 56.2796 121.659 54.9825L124.281 65.0775Z" fill="#F8F8F8"/>
<path d="M48.4838 88.6791C48.3146 88.6791 48.1454 88.6508 47.9762 88.5662C47.6943 88.4253 47.4687 88.1715 47.3559 87.8613L43.8875 77.0049C43.6901 76.4127 44.0003 75.7641 44.5924 75.5667C46.8765 74.7208 100.792 55.0946 121.546 53.8257C122.053 53.7975 122.617 54.1641 122.758 54.6998L125.381 64.7949C125.465 65.1333 125.409 65.5281 125.183 65.81C124.958 66.092 124.619 66.2612 124.253 66.2612C105.332 66.2894 49.4708 88.3971 48.9068 88.6226C48.794 88.6508 48.6248 88.6791 48.4838 88.6791ZM46.4817 77.3714L49.217 85.972C57.3664 82.7856 103.668 64.9077 122.758 63.949L120.756 56.1944C101.271 57.8863 54.1235 74.6362 46.4817 77.3714Z" fill="#000200"/>
<path d="M85.8197 68.9961C84.0432 69.701 82.3513 70.5188 80.7158 71.5621C79.475 72.3799 80.9696 74.1564 82.2103 73.3386C83.6484 72.4081 85.2275 71.7313 86.7784 71.0827C88.1884 70.547 87.2014 68.4321 85.8197 68.9961Z" fill="#000200"/>
<path d="M119.854 60.5658C118.557 59.9454 117.147 59.5789 115.907 58.8739C114.609 58.1407 113.228 60.0018 114.525 60.7632C115.963 61.581 117.514 62.0603 118.98 62.7653C120.362 63.3857 121.208 61.2144 119.854 60.5658Z" fill="#000200"/>
<path d="M95.0118 190.391C85.9883 190.391 71.6917 186.049 60.6096 176.376C60.1303 175.953 60.0739 175.22 60.4969 174.741C60.9198 174.262 61.653 174.205 62.1324 174.628C75.3011 186.133 93.6865 189.884 100.031 187.346C100.623 187.12 101.3 187.402 101.554 187.994C101.807 188.586 101.497 189.263 100.905 189.517C99.439 190.081 97.4087 190.391 95.0118 190.391Z" fill="#000200"/>
<path d="M53.0807 96.8015C52.6014 96.8015 52.1502 96.5195 51.981 96.0402C51.7554 95.448 52.0656 94.7712 52.6578 94.5456C52.9962 94.4328 60.8635 91.5284 64.191 90.9362C64.8395 90.8234 65.4317 91.2464 65.5445 91.8668C65.6573 92.5153 65.2343 93.1075 64.6139 93.2203C61.4839 93.7843 53.5601 96.6887 53.4755 96.7451C53.3345 96.7733 53.1935 96.8015 53.0807 96.8015Z" fill="#000200"/>
<path d="M133.87 207.705C133.813 207.705 133.785 207.705 133.729 207.705C133.08 207.621 132.629 207.029 132.713 206.408L134.659 190.815C134.744 190.166 135.308 189.743 135.956 189.799C136.605 189.884 137.056 190.476 136.971 191.097L135.026 206.69C134.969 207.282 134.462 207.705 133.87 207.705Z" fill="#000200"/>
<path d="M44.8464 191.068C44.8746 191.04 44.8746 191.04 44.9028 191.04C45.354 190.589 45.3258 189.856 44.8746 189.404C44.8182 189.348 39.2631 183.68 42.6469 167.24C42.7879 166.62 42.3649 166 41.7446 165.859C41.1242 165.718 40.5038 166.141 40.3628 166.761C37.7968 179.225 40.0808 186.021 41.8009 189.066C42.8161 189.743 43.8313 190.42 44.8464 191.068Z" fill="#000200"/>
</g>
</svg>
