<svg width="199" height="199" viewBox="0 0 199 199" fill="none" xmlns="http://www.w3.org/2000/svg">
<mask id="mask0_817_4787" style="mask-type:luminance" maskUnits="userSpaceOnUse" x="0" y="0" width="199" height="199">
<path d="M0 99.3317C0 44.4723 44.4723 0 99.3317 0C154.191 0 198.663 44.4723 198.663 99.3317C198.663 154.191 154.191 198.663 99.3317 198.663C44.4723 198.663 0 154.191 0 99.3317Z" fill="white"/>
</mask>
<g mask="url(#mask0_817_4787)">
<path d="M0 99.3317C0 44.4723 44.4723 0 99.3317 0C154.191 0 198.663 44.4723 198.663 99.3317C198.663 154.191 154.191 198.663 99.3317 198.663C44.4723 198.663 0 154.191 0 99.3317Z" fill="#F8F8F8"/>
<path d="M29.3424 164.943C28.5441 164.943 27.7887 164.533 27.0767 163.713C26.3646 162.894 25.6309 161.383 26.2999 158.772C28.1555 151.565 39.5918 140.453 53.639 135.425C65.96 131.023 81.7335 133.656 103.592 137.324C121.178 140.28 143.079 143.948 169.512 144.725C170.03 144.747 170.44 145.178 170.418 145.696C170.397 146.214 169.922 146.624 169.447 146.602C142.863 145.804 120.919 142.136 103.268 139.158C81.7119 135.533 66.1327 132.922 54.2649 137.173C39.5488 142.438 29.6445 153.356 28.1341 159.204C27.8751 160.196 27.7241 161.556 28.5009 162.419C28.6951 162.656 29.0834 163.045 29.3855 163.001C30.076 162.958 31.1549 161.318 32.1259 159.851C34.3053 156.55 37.2614 152.04 42.8069 152.212C43.3249 152.234 43.7348 152.666 43.7132 153.183C43.6916 153.701 43.1953 154.111 42.7422 154.09C38.2756 153.96 35.7295 157.801 33.6796 160.887C32.2554 163.045 31.1118 164.771 29.4935 164.879C29.4503 164.943 29.3856 164.943 29.3424 164.943Z" fill="#000200"/>
<path d="M33.3984 174.309C32.4058 174.309 31.4995 173.985 30.7875 173.338C29.7517 172.389 29.3418 170.943 29.7086 169.389C30.3775 166.519 35.8367 157.931 44.3815 151.07C44.7915 150.746 45.3741 150.811 45.6978 151.221C46.0214 151.631 45.9567 152.213 45.5467 152.537C36.894 159.507 32.0174 167.728 31.5211 169.821C31.3269 170.706 31.4995 171.461 32.039 171.957C32.5784 172.453 33.42 172.583 34.2831 172.281C34.7794 172.108 35.3188 172.389 35.4699 172.885C35.6425 173.381 35.362 173.921 34.8657 174.072C34.391 174.223 33.8731 174.309 33.3984 174.309Z" fill="#000200"/>
<path d="M37.9083 178.365C37.1962 178.365 36.5489 178.214 35.9879 177.912C35.2974 177.545 34.1538 176.574 34.1538 174.287C34.1538 169.777 43.7775 159.636 50.2508 153.939C50.6392 153.594 51.2434 153.637 51.5887 154.025C51.9339 154.414 51.8908 155.018 51.5024 155.363C42.9791 162.872 36.0526 171.374 36.0526 174.287C36.0526 175.28 36.3331 175.949 36.9157 176.272C37.7573 176.725 39.203 176.466 40.5192 175.646C40.9508 175.366 41.5334 175.495 41.8139 175.927C42.0944 176.359 41.9649 176.941 41.5334 177.222C40.325 177.977 39.0519 178.365 37.9083 178.365Z" fill="#000200"/>
<path d="M43.3465 180.394C42.7423 180.394 41.9007 180.2 41.1671 179.272C40.3687 178.257 40.0882 177.049 40.2824 175.668C41.2534 169.044 53.7686 160.067 55.1927 159.075C55.6243 158.773 56.2069 158.881 56.509 159.312C56.811 159.744 56.7032 160.326 56.2716 160.628C51.6971 163.843 42.8286 171.202 42.1381 175.949C42.0086 176.812 42.1813 177.524 42.6344 178.106C42.9149 178.473 43.1523 178.516 43.3249 178.516C44.7706 178.516 47.2521 175.431 48.5683 173.769C49.2372 172.928 49.7767 172.28 50.1866 171.87C54.9769 167.425 61.6445 166.886 67.6 166.864C68.1178 166.864 68.5494 167.296 68.5494 167.814C68.5494 168.332 68.1178 168.763 67.6 168.763C67.4705 168.785 67.3626 168.763 67.2332 168.763C61.515 168.763 55.689 169.346 51.4813 173.251C51.1576 173.554 50.6182 174.222 50.0356 174.935C48.1152 177.373 45.6984 180.394 43.3465 180.394Z" fill="#000200"/>
<path d="M81.0216 134.045C79.9858 133.398 79.0364 135.038 80.0721 135.663C91.4652 142.762 94.853 157.047 87.9265 168.57C87.3007 169.605 88.9406 170.555 89.5448 169.519C96.9892 157.133 93.2778 141.684 81.0216 134.045Z" fill="#000200"/>
<path d="M91.9831 136.482C91.832 136.504 91.681 136.547 91.5084 136.547C90.8394 136.569 90.2137 136.677 89.5664 136.784C99.1685 145.567 100.679 159.398 93.0835 170.057C92.3715 171.05 94.0114 172 94.7019 171.007C102.47 160.089 101.218 145.847 91.9831 136.482Z" fill="#000200"/>
<path d="M158.076 190.405C147.524 190.405 135.894 188.118 124.198 182.594C123.724 182.378 123.529 181.817 123.745 181.343C123.961 180.868 124.522 180.674 124.997 180.89C150.545 192.952 175.705 189.197 189.299 180.156C197.283 174.848 201.512 167.641 201.167 159.873C200.994 156.053 199.376 151.954 196.376 147.703C196.074 147.271 196.182 146.689 196.592 146.387C197.024 146.084 197.606 146.192 197.908 146.602C201.145 151.155 202.871 155.579 203.044 159.786C203.411 168.245 198.901 176.035 190.356 181.731C182.566 186.91 171.173 190.405 158.076 190.405Z" fill="#000200"/>
<path d="M187.701 135.771C169.382 120.019 140.597 107.698 129.786 104.807C129.808 105.454 129.786 106.101 129.765 106.749C140.77 109.813 168.648 121.875 186.493 137.217C186.666 137.368 186.882 137.454 187.097 137.454C187.356 137.454 187.615 137.346 187.809 137.13C188.133 136.699 188.09 136.116 187.701 135.771Z" fill="#000200"/>
<path d="M118.351 136.396L111.057 139.547L127.198 141.985C124.026 140.453 121.005 138.684 118.351 136.396Z" fill="#000200"/>
<path d="M127.025 227.477C125.212 227.477 123.335 225.837 120.422 223.291C117.811 221.004 114.207 217.853 109.072 214.466C98.2831 207.366 74.0728 204.928 42.6554 207.755C23.2785 209.503 -11.5914 209.848 -27.5374 192.37C-34.8091 184.408 -37.2474 173.619 -34.8091 160.305C-28.681 126.838 41.706 105.584 44.7053 104.699C45.2016 104.548 45.7194 104.828 45.8705 105.325C46.0215 105.821 45.741 106.339 45.2447 106.49C20.2791 113.891 -28.2063 134.757 -32.9534 160.629C-35.2838 173.338 -32.975 183.588 -26.1348 191.075C-10.7282 207.928 23.4727 207.561 42.4828 205.856C74.3101 202.986 98.9736 205.532 110.108 212.869C115.373 216.321 119.019 219.515 121.673 221.867C124.263 224.133 126.118 225.772 127.24 225.578C127.586 225.513 127.866 225.017 127.974 224.305C128.341 221.673 126.248 215.264 115.588 209.848C115.114 209.611 114.941 209.05 115.178 208.575C115.416 208.1 115.977 207.928 116.451 208.165C128.017 214.077 130.304 221.263 129.83 224.586C129.614 226.161 128.772 227.218 127.586 227.434C127.413 227.456 127.219 227.477 127.025 227.477Z" fill="#000200"/>
<path d="M139.41 224.541C137.296 224.541 135.203 222.189 134.512 219.039C133.563 214.637 129.096 211.465 129.053 211.444C128.622 211.141 126.14 208.595 126.442 208.164C126.744 207.732 129.7 209.609 130.132 209.89C130.348 210.041 135.246 213.493 136.346 218.629C136.907 221.283 138.504 222.642 139.432 222.642C140.036 222.621 140.511 221.822 140.684 220.506C141.245 216.191 138.181 205.941 128.514 201.82C128.168 201.669 127.931 201.324 127.931 200.935C127.931 200.547 128.19 200.201 128.535 200.072C128.622 200.029 137.684 196.727 143.726 206.308C148.257 213.472 149.617 214.745 149.854 214.939C150.178 215.09 150.415 215.414 150.415 215.781C150.415 216.299 150.005 216.73 149.487 216.752C149.013 216.752 148.106 216.795 142.108 207.301C138.742 201.971 134.426 201.216 131.75 201.345C139.842 206.135 143.251 215.306 142.539 220.744C142.108 224.045 140.274 224.477 139.497 224.498C139.475 224.52 139.454 224.541 139.41 224.541Z" fill="#000200"/>
<path d="M150.696 207.754C150.329 207.754 149.984 207.538 149.833 207.193C144.848 196.21 134.34 187.039 118.566 179.919C101.563 172.237 83.9556 168.396 67.6427 168.741C67.0385 168.741 66.6933 168.331 66.6717 167.813C66.6501 167.296 67.0817 166.864 67.5996 166.842C84.1929 166.454 102.081 170.403 119.343 178.192C135.526 185.507 146.358 195.002 151.537 206.395C151.753 206.869 151.537 207.43 151.062 207.646C150.955 207.732 150.825 207.754 150.696 207.754Z" fill="#000200"/>
<path d="M102.966 172.452C102.577 172.28 102.189 172.107 101.8 171.956C84.7974 173.898 75.9289 192.649 85.3152 206.998C85.8547 207.149 86.4157 207.257 86.9552 207.365C87.2357 207.085 87.3436 206.653 87.0631 206.243C78.173 193.016 86.2431 175.43 102.146 173.79C102.901 173.725 103.16 172.97 102.966 172.452Z" fill="#000200"/>
<path d="M93.9901 170.231C78.0224 172.756 69.1539 191.723 77.8498 205.964C78.4756 207 80.1155 206.051 79.4681 205.015C71.1822 191.399 80.2665 172.799 96.2342 171.871C96.7304 171.85 97.0325 171.504 97.1188 171.116C96.0615 170.836 95.0258 170.577 93.9901 170.231Z" fill="#000200"/>
<path d="M6.79263 164.038C6.36107 164.038 5.99424 163.757 5.88635 163.325C5.75689 162.829 6.05897 162.311 6.57684 162.182C12.2303 160.779 27.2485 162.096 27.8742 162.16C28.3921 162.203 28.7805 162.657 28.7374 163.174C28.6942 163.692 28.2411 164.081 27.7232 164.038C27.5722 164.016 12.3813 162.678 7.05155 164.016C6.94366 164.016 6.85736 164.038 6.79263 164.038Z" fill="#000200"/>
<path d="M78.9701 94.4933C87.1912 93.3281 93.0172 67.9957 93.0172 67.9957C97.8291 72.4407 125.858 75.8931 129.786 73.8648C129.786 62.6443 121.09 53.9053 101.972 53.9053C79.3585 53.9053 71.8062 63.3348 71.8062 78.4178C71.8062 93.5007 71.8062 93.5007 71.8062 93.5007L72.0004 93.8243C75.2802 93.4359 75.6471 94.5148 78.9701 94.4933Z" fill="#000200"/>
<path d="M114.552 110.159C114.034 110.159 113.603 109.728 113.603 109.21C113.603 108.692 114.034 108.26 114.552 108.26C116.321 108.26 117.767 107.786 118.436 106.987C118.824 106.534 118.954 105.995 118.824 105.326C118.566 103.837 115.264 102.995 113.689 102.823C113.214 102.78 112.847 102.37 112.847 101.895V93.2639C112.847 92.746 113.279 92.3145 113.797 92.3145C114.315 92.3145 114.746 92.746 114.746 93.2639V101.075C116.494 101.377 120.249 102.348 120.68 105.002C120.874 106.211 120.594 107.311 119.86 108.196C118.824 109.469 116.947 110.159 114.552 110.159Z" fill="#000200"/>
<path d="M121.197 91.4512V93.3285C121.197 95.7452 124.974 95.7668 124.974 93.3285V91.4512C124.974 89.0345 121.197 89.0345 121.197 91.4512Z" fill="#000200"/>
<path d="M95.9731 91.4512V93.3285C95.9731 95.7452 99.7492 95.7668 99.7492 93.3285V91.4512C99.7492 89.0345 95.9731 89.0345 95.9731 91.4512Z" fill="#000200"/>
<path d="M95.7389 85.456C94.2285 85.7797 92.7612 86.1896 91.337 86.8154C90.215 87.2901 91.186 88.93 92.2865 88.4337C93.5596 87.8943 94.8974 87.5706 96.2352 87.2685C97.4435 87.0096 96.9257 85.197 95.7389 85.456Z" fill="#000200"/>
<path d="M128.303 88.3323C127.246 87.8792 126.08 87.6203 125.066 87.0808C124.009 86.5198 122.93 88.095 124.009 88.6344C125.196 89.2386 126.469 89.5839 127.677 90.1017C128.799 90.5764 129.425 88.8071 128.303 88.3323Z" fill="#000200"/>
<path d="M100.02 120.965C101.423 121.181 103.3 121.828 103.408 123.511C103.473 124.719 105.372 124.719 105.285 123.511C105.134 120.943 102.868 119.519 100.516 119.152C99.3292 118.98 98.8122 120.792 100.02 120.965Z" fill="#000200"/>
<path d="M106.87 139.569C106.395 139.569 105.964 139.203 105.921 138.706C105.878 138.188 106.266 137.735 106.784 137.692C112.524 137.217 117.228 136.009 120.378 134.197C129.505 128.932 129.182 112.23 128.642 84.5676C128.577 81.633 128.534 78.5905 128.47 75.4185C128.254 61.5871 119.579 54.8548 101.994 54.8548C81.7753 54.8548 72.7557 62.1266 72.7557 78.4394V93.5224C72.7557 94.0402 72.3242 94.4718 71.8063 94.4718C71.2884 94.4718 70.8569 94.0402 70.8569 93.5224V78.4394C70.8569 61.0693 80.7396 52.9776 101.972 52.9776C120.551 52.9776 130.11 60.5298 130.347 75.397C130.39 78.5689 130.455 81.6114 130.519 84.546C131.08 112.899 131.404 130.032 121.327 135.858C117.896 137.843 113.063 139.095 106.956 139.613C106.913 139.569 106.892 139.569 106.87 139.569Z" fill="#000200"/>
<path d="M79.079 92.6154C72.8861 92.3133 68.5274 93.3059 66.1323 95.5931C64.4492 97.1899 64.104 99.0672 64.104 100.34C64.104 102.261 64.8808 104.073 66.3049 105.433C67.578 106.662 69.9731 108.065 74.2455 108.065H74.3319C75.0224 110.546 76.7917 119.329 68.7648 122.954C69.52 123.299 70.2968 123.58 71.0952 123.86C79.8558 118.53 75.9718 106.921 75.9286 106.814C75.7992 106.425 75.4539 106.145 75.0008 106.188C71.7425 106.317 69.1963 105.584 67.6211 104.095C66.2186 102.735 66.0028 101.182 66.0028 100.362C66.0028 99.024 66.4991 97.902 67.4485 96.9741C69.4337 95.0753 73.4256 94.2337 79.0143 94.5142C79.489 94.5358 79.9853 94.1474 80.0068 93.6296C79.9853 93.0901 79.5969 92.637 79.079 92.6154Z" fill="#000200"/>
<path d="M80.9988 61.1985C70.1883 60.6159 61.5355 67.9308 59.9819 78.4176C48.2651 74.8789 36.5915 80.2086 28.4135 88.7966C22.6522 94.86 17.2577 105.39 24.5942 111.928C24.2921 112.532 24.7884 113.503 25.6731 113.331C39.1161 110.482 55.8821 107.936 64.578 121.379C68.9799 128.198 75.0433 121.746 75.8848 115.639C75.9496 115.143 75.9711 114.668 75.9711 114.194C76.1006 114.043 76.2085 113.87 76.2301 113.633C76.4027 111.712 76.4674 109.468 74.9354 108.044C74.137 107.31 73.1444 106.965 72.1734 107.073C71.6124 106.706 71.0082 106.361 70.4256 106.037C70.1667 105.994 69.9077 105.929 69.6488 105.843C67.7068 105.217 66.11 103.772 65.5059 101.786C64.168 97.4925 67.8363 94.1263 71.9145 94.2126C72.4539 93.8458 72.9502 93.479 73.3386 93.1122C81.2361 85.3226 81.0419 73.3684 80.4593 63.0758C80.6535 63.0758 80.8261 63.0758 81.0204 63.0758C82.2071 63.1405 82.2071 61.2632 80.9988 61.1985Z" fill="#000200"/>
<path d="M150.069 114.344C150.155 114.301 150.22 114.236 150.285 114.172C150.479 114.107 150.652 113.999 150.781 113.783C154.557 107.504 156.543 99.4341 152.853 92.637C150.004 87.372 144.394 84.308 138.547 84.9553C138.482 77.9209 137.187 69.1172 127.952 65.6647C127.93 65.5568 128.664 67.4125 127.952 67.7793C128.103 67.8872 128.276 67.9951 128.448 68.1246C130.369 80.575 130.671 93.1333 129.398 105.692C129.29 106.835 142.603 109.446 148.213 113.675C148.861 113.87 149.465 114.107 150.069 114.344Z" fill="#000200"/>
<path d="M75.3882 134.908C76.1219 134.93 76.834 134.93 77.5676 134.952C77.7187 134.52 77.546 134.045 77.1361 133.83C72.8421 131.391 72.7557 123.019 72.7557 122.933C72.7557 122.415 72.3242 121.983 71.8063 121.983C71.2884 121.983 70.8569 122.415 70.8569 122.933C70.8569 123.3 70.9432 131.499 75.3882 134.908Z" fill="#000200"/>
<path d="M85.53 131.866L83.6528 135.146L93.2765 136.246C90.6656 134.822 88.0762 133.377 85.53 131.866Z" fill="#000200"/>
<path d="M93.2763 137.175C93.2331 137.175 93.2116 137.175 93.1684 137.175L83.5447 136.074C83.221 136.031 82.9621 135.837 82.811 135.557C82.66 135.276 82.6816 134.931 82.8326 134.672L84.7099 131.392C84.8393 131.176 85.0551 131.004 85.2925 130.939C85.5298 130.874 85.7888 130.917 86.0046 131.047C88.5076 132.536 91.0754 133.96 93.7079 135.405C94.0963 135.621 94.2905 136.096 94.161 136.528C94.0315 136.916 93.6647 137.175 93.2763 137.175ZM85.163 134.37L88.6371 134.758C87.7092 134.24 86.7814 133.701 85.8535 133.161L85.163 134.37Z" fill="#000200"/>
<path d="M97.3768 99.9301C96.0605 99.9301 94.7227 99.6281 93.4712 99.0024C90.1914 97.3625 88.2925 94.0395 88.2925 89.875C88.2925 89.3571 88.7025 88.9255 89.2204 88.9255C89.6951 88.9471 90.1698 89.3355 90.1698 89.8534C90.1914 93.2843 91.7018 96.0031 94.3127 97.2977C96.5353 98.3982 99.1677 98.2256 100.98 96.8662C103.073 95.3126 103.85 92.4643 103.203 88.8608C103.116 88.3429 103.461 87.8682 103.958 87.7603C104.476 87.674 104.95 88.0193 105.058 88.5156C106.116 94.3847 103.656 97.2114 102.102 98.3766C100.786 99.4124 99.103 99.9301 97.3768 99.9301Z" fill="#000200"/>
<path d="M124.132 98.8523C122.967 98.8523 121.802 98.5718 120.723 98.0323C117.68 96.4787 115.911 93.091 115.911 88.7107C115.911 88.1928 116.342 87.7613 116.86 87.7613C117.378 87.7613 117.81 88.1928 117.81 88.7107C117.81 92.3573 119.191 95.1409 121.586 96.3492C123.463 97.2987 125.664 97.126 127.347 95.9177C129.419 94.4072 130.282 91.5805 129.742 88.1712C129.656 87.6534 130.001 87.1787 130.519 87.0923C131.037 87.006 131.512 87.3513 131.598 87.8691C132.267 92.0121 131.123 95.5077 128.448 97.4281C127.175 98.3776 125.664 98.8523 124.132 98.8523Z" fill="#000200"/>
<path d="M104.389 93.349C104.065 93.349 103.742 93.1763 103.569 92.8527C103.31 92.3995 103.483 91.8169 103.936 91.5796C104.216 91.4285 111.056 87.7603 117.271 90.7165C117.746 90.9323 117.94 91.4933 117.724 91.968C117.508 92.4427 116.947 92.6369 116.473 92.4211C111.121 89.8749 104.928 93.2195 104.864 93.2411C104.713 93.3058 104.54 93.349 104.389 93.349Z" fill="#000200"/>
</g>
</svg>
