<svg width="199" height="199" viewBox="0 0 199 199" fill="none" xmlns="http://www.w3.org/2000/svg">
<mask id="mask0_817_5133" style="mask-type:luminance" maskUnits="userSpaceOnUse" x="0" y="0" width="199" height="199">
<path d="M0 99.3317C0 44.4723 44.4723 0 99.332 0C154.191 0 198.663 44.4723 198.663 99.3317C198.663 154.192 154.191 198.664 99.332 198.664C44.4723 198.664 0 154.192 0 99.3317Z" fill="white"/>
</mask>
<g mask="url(#mask0_817_5133)">
<path d="M0 99.3317C0 44.4723 44.4723 0 99.332 0C154.191 0 198.663 44.4723 198.663 99.3317C198.663 154.192 154.191 198.664 99.332 198.664C44.4723 198.664 0 154.192 0 99.3317Z" fill="#F8F8F8"/>
<path d="M68.9519 171.704L65.8175 146.062C71.4014 145.482 106.235 141.651 115.321 140.65L116.441 159.786C116.81 159.456 117.257 159.205 117.745 159.035L116.612 139.859C116.599 139.675 116.52 139.504 116.375 139.385C116.23 139.267 116.046 139.215 115.861 139.228C98.6621 141.124 65.9492 144.72 65.0274 144.786C64.843 144.786 64.6718 144.877 64.5401 145.008C64.4084 145.153 64.3557 145.352 64.3821 145.536L67.5559 171.506C68.0432 171.533 68.5041 171.599 68.9519 171.704Z" fill="#000200"/>
<path d="M119.259 184.371C118.838 184.713 118.416 185.042 117.969 185.358L119.193 206.153L73.8246 211.552L71.9151 195.947C71.8887 195.96 71.8624 195.973 71.8361 195.973C71.4278 196.091 71.0064 196.144 70.585 196.184L72.5604 212.369C72.5999 212.711 72.8896 212.961 73.232 212.961C73.2584 212.961 73.2847 212.961 73.311 212.961L119.97 207.417C120.326 207.378 120.589 207.062 120.563 206.706L119.259 184.371Z" fill="#000200"/>
<path d="M101.507 162.298C101.704 162.311 101.915 162.311 102.113 162.311L100.822 164.273C100.69 163.799 100.677 163.285 100.809 162.798C100.888 162.482 101.177 162.271 101.507 162.298Z" fill="#000200"/>
<path d="M116.52 140.267L106.011 156.347L105.142 157.664C104.628 157.65 104.088 157.637 103.548 157.637L104.418 156.307L115.388 139.529C115.585 139.213 116.007 139.134 116.323 139.332C116.639 139.529 116.731 139.951 116.52 140.267Z" fill="#000200"/>
<path d="M120.444 207.128C120.312 207.313 120.101 207.418 119.891 207.418C119.759 207.418 119.627 207.379 119.509 207.3L98.6747 192.721L97.2261 191.707C97.7924 191.575 98.3718 191.43 98.9776 191.286L100.413 192.286L120.299 206.207C120.589 206.404 120.655 206.826 120.444 207.128Z" fill="#000200"/>
<path d="M90.7732 192.945L89.3641 194.591L73.7451 212.738C73.6134 212.896 73.429 212.976 73.2315 212.976C73.0734 212.976 72.9154 212.923 72.7969 212.817C72.5203 212.58 72.4808 212.146 72.731 211.869L87.2569 194.986L88.6529 193.366C89.3246 193.248 90.0094 193.116 90.6942 192.984C90.7073 192.958 90.7337 192.958 90.7732 192.945Z" fill="#000200"/>
<path d="M92.3675 162.891C92.1699 163.233 91.9855 163.589 91.788 163.931C91.7617 163.984 91.7353 164.023 91.709 164.076L90.5764 163.325L64.6853 146.021C64.3692 145.81 64.2902 145.388 64.5009 145.086C64.7116 144.77 65.133 144.691 65.4359 144.901L91.2349 162.14L92.3675 162.891Z" fill="#000200"/>
<path d="M106.749 193.828C110.818 191.576 114.769 189.113 118.707 186.677L118.615 185.11C117.851 185.321 100.177 191.655 92.9738 193.222C85.0721 194.947 79.1458 195.659 71.2705 196.291L73.2196 212.292L75.6954 212.002C85.0457 204.311 96.2266 199.662 106.749 193.828Z" fill="#000200"/>
<path d="M73.6408 171.808C73.3115 171.808 73.0218 171.558 72.9691 171.216L71.5863 160.562C71.56 160.364 71.6258 160.18 71.7444 160.035C71.8761 159.89 72.0604 159.811 72.2448 159.811H82.596C82.9252 159.811 83.215 160.061 83.2676 160.39L84.5451 169.016C84.5977 169.385 84.3475 169.728 83.9788 169.78C83.6232 169.833 83.2676 169.583 83.215 169.214L82.0165 161.154H73.0086L74.2861 171.058C74.3387 171.426 74.0754 171.769 73.7066 171.808C73.7066 171.808 73.6671 171.808 73.6408 171.808Z" fill="#000200"/>
<path d="M54.8879 171.807C54.5192 171.807 54.2163 171.503 54.2163 171.135V148.036C54.2163 147.668 54.5192 147.365 54.8879 147.365C55.2567 147.365 55.5596 147.668 55.5596 148.036V171.135C55.5596 171.503 55.2567 171.807 54.8879 171.807Z" fill="#000200"/>
<path d="M54.8879 206.772C54.5192 206.772 54.2163 206.469 54.2163 206.1V198.712C54.2163 198.343 54.5192 198.04 54.8879 198.04C55.2567 198.04 55.5596 198.343 55.5596 198.712V206.1C55.5596 206.469 55.2567 206.772 54.8879 206.772Z" fill="#000200"/>
<path d="M58.2324 145.547C56.5731 146.192 56.1517 146.469 54.2158 147.654C54.0972 147.773 54.2158 148.813 54.2158 148.971V155.49C54.2158 155.767 54.387 156.03 54.6504 156.122C54.7294 156.149 54.8084 156.162 54.8874 156.162C55.0849 156.162 55.2693 156.083 55.401 155.925C55.5986 155.688 59.365 150.17 59.365 146.864C59.3518 145.837 58.6144 145.402 58.2324 145.547Z" fill="#000200"/>
<path d="M109.198 101.403C109.158 101.377 109.119 101.337 109.066 101.311C108.737 101.14 108.328 101.285 108.157 101.614L99.689 118.524L82.4768 101.509C82.2134 101.245 81.7788 101.245 81.5286 101.509C81.2652 101.772 81.2652 102.207 81.5286 102.457L99.4 120.143C99.531 120.275 99.702 120.341 99.874 120.341C99.913 120.341 99.953 120.341 99.979 120.328C100.19 120.288 100.374 120.157 100.479 119.959L109.198 102.562V101.403Z" fill="#000200"/>
<path d="M90.6696 125.49C90.6432 125.49 90.6169 125.49 90.5906 125.49C90.3667 125.464 90.1691 125.332 90.0769 125.135L78.5668 103.023C78.3956 102.694 78.5273 102.286 78.8566 102.115C79.1858 101.943 79.5941 102.075 79.7653 102.404L90.8276 123.634L96.8329 116.693C97.0831 116.417 97.5045 116.377 97.7811 116.627C98.0576 116.878 98.0971 117.299 97.8469 117.576L91.1964 125.267C91.0515 125.411 90.8539 125.49 90.6696 125.49Z" fill="#000200"/>
<path d="M107.841 120.34C107.697 120.34 107.539 120.288 107.42 120.196L101.718 115.705C101.454 115.507 101.388 115.152 101.533 114.862L108.171 102.39C108.263 102.219 108.408 102.101 108.592 102.048C108.776 101.995 108.974 102.035 109.132 102.14L112.569 104.366C112.819 104.524 112.938 104.84 112.846 105.13L108.474 119.866C108.408 120.077 108.25 120.248 108.026 120.314C107.973 120.327 107.907 120.34 107.841 120.34ZM102.995 114.994L107.473 118.51L111.41 105.209L109.014 103.655L102.995 114.994Z" fill="#000200"/>
<path d="M103.549 141.939C103.193 141.939 102.89 141.649 102.877 141.294L102.271 123.37L99.387 120.117C99.1369 119.84 99.1633 119.406 99.44 119.169C99.716 118.919 100.138 118.945 100.388 119.222L103.443 122.646C103.549 122.764 103.615 122.909 103.615 123.067L104.234 141.228C104.247 141.596 103.957 141.913 103.588 141.926C103.575 141.939 103.562 141.939 103.549 141.939Z" fill="#000200"/>
<path d="M129.769 208.681C129.414 208.681 129.111 208.391 129.098 208.036C128.979 205.112 126.227 136.512 126.227 135.933C126.227 135.564 126.529 135.261 126.898 135.261C127.267 135.261 127.57 135.564 127.57 135.933C127.583 136.868 130.414 207.272 130.441 207.983C130.454 208.352 130.164 208.668 129.795 208.681C129.782 208.681 129.769 208.681 129.769 208.681Z" fill="#000200"/>
<path d="M85.1639 69.7828C85.7302 62.105 89.4308 50.1076 89.4308 50.1076C92.8681 53.2946 117.192 54.572 120.023 53.1234C118.891 46.8679 114.426 41.2314 100.743 41.2314C84.545 41.2314 79.1455 47.9741 79.1455 58.7599C79.1455 69.5457 79.1455 69.5457 79.1455 69.5457L79.2772 69.7696C81.6345 69.5062 82.7803 69.7959 85.1639 69.7828Z" fill="#000200"/>
<path d="M109.724 78.6724C109.356 78.6724 109.053 78.3695 109.053 78.0008C109.053 77.632 109.356 77.3291 109.724 77.3291C110.989 77.3291 112.029 76.9867 112.503 76.4204C112.78 76.1044 112.872 75.7093 112.793 75.2352C112.622 74.1684 110.251 73.5758 109.118 73.4573C108.776 73.4178 108.513 73.1281 108.513 72.7857V66.6092C108.513 66.2404 108.816 65.9375 109.184 65.9375C109.553 65.9375 109.856 66.2404 109.856 66.6092V72.2062C111.107 72.4301 113.794 73.1149 114.11 75.0245C114.255 75.8936 114.057 76.6838 113.53 77.3028C112.78 78.1851 111.423 78.6724 109.724 78.6724Z" fill="#000200"/>
<path d="M113.557 65.4649V66.8082C113.557 68.5466 116.257 68.5466 116.257 66.8082V65.4649C116.257 63.7266 113.557 63.7266 113.557 65.4649Z" fill="#000200"/>
<path d="M97.3188 65.4649V66.8082C97.3188 68.5466 100.019 68.5466 100.019 66.8082V65.4649C100.019 63.7266 97.3188 63.7266 97.3188 65.4649Z" fill="#000200"/>
<path d="M95.9955 59.9308C95.1048 60.5858 94.2596 61.2783 93.5092 62.0871C92.9262 62.7208 94.0224 63.5019 94.6055 62.8683C95.2756 62.1383 96.0633 61.5434 96.8564 60.9606C97.5572 60.462 96.7029 59.4148 95.9955 59.9308Z" fill="#000200"/>
<path d="M118.664 61.2508C117.979 60.7899 117.202 60.4475 116.557 59.9339C115.885 59.4071 114.924 60.3553 115.608 60.8821C116.359 61.4747 117.202 61.883 117.992 62.4097C118.703 62.9102 119.375 61.7381 118.664 61.2508Z" fill="#000200"/>
<path d="M100.704 91.8539C101.715 91.6758 103.618 91.7683 104.08 92.8769C104.406 93.6701 105.974 91.2897 105.631 90.4884C104.927 88.7943 103.075 88.3412 101.395 88.6367C100.554 88.7844 99.8516 92.0058 100.704 91.8539Z" fill="#000200"/>
<path d="M121.13 63.1329C121.09 61.039 121.051 58.8529 121.011 56.5877C120.84 45.9468 114.018 40.5605 100.73 40.5605C85.5461 40.5605 78.4741 46.3419 78.4741 58.7738V69.5596C78.4741 69.9284 78.777 70.2313 79.1458 70.2313C79.5145 70.2313 79.8174 69.9284 79.8174 69.5596V58.7738C79.8174 47.1189 86.2704 41.9169 100.73 41.9169C113.32 41.9169 119.51 46.7238 119.668 56.614C119.708 58.8792 119.747 61.0653 119.787 63.1593C120.169 82.9398 120.406 94.8845 113.887 98.651C108.29 101.878 98.1888 101.272 98.0834 101.259C97.8596 101.246 97.6357 101.351 97.504 101.536C97.3723 101.72 97.3328 101.957 97.4118 102.181C98.6234 105.394 103.061 107.238 105.695 108.068C106.565 106.316 107.513 104.604 108.514 102.932V101.996C108.514 101.97 108.514 101.957 108.514 101.931C110.66 101.509 112.794 100.838 114.558 99.823C121.775 95.6483 121.525 83.4139 121.13 63.1329Z" fill="#000200"/>
<path d="M80.7781 79.9634L80.8438 82.65C81.2916 82.65 81.7393 82.65 82.1871 82.6368L82.0949 79.2523C82.0949 79.0679 82.0159 78.8967 81.8842 78.7782C81.7525 78.6596 81.5813 78.5806 81.3969 78.5938C79.0659 78.686 77.2486 78.1724 76.1292 77.0925C75.1152 76.1179 74.9703 74.9985 74.9703 74.4191C74.9703 73.4709 75.3127 72.6544 76.0107 71.9959C77.433 70.6395 80.2908 70.0337 84.2811 70.2444C84.6367 70.2575 84.9658 69.981 84.9922 69.5991C85.0054 69.2303 84.7288 68.9143 84.3469 68.8879C79.9219 68.664 76.8009 69.3752 75.0889 71.0082C73.8904 72.1539 73.627 73.4841 73.627 74.4059C73.627 75.7755 74.1933 77.0793 75.2074 78.0539C76.1029 78.9494 77.7886 79.9371 80.7781 79.9634Z" fill="#000200"/>
<path d="M80.9363 78.6982C78.4209 78.8562 75.6421 78.2636 74.7203 76.8545C72.9688 74.1416 73.9038 71.1653 80.5544 68.7026C83.0039 67.7939 84.4393 63.5533 85.032 61.1302C86.1777 56.4682 86.9284 51.7272 87.5868 46.973C87.6395 46.5911 87.4947 46.2882 87.1127 46.1433C86.586 45.9458 86.3489 45.8536 86.125 45.8009C86.0328 45.7219 85.9143 45.6692 85.7695 45.6561C78.8687 45.1161 73.0873 52.7281 69.8476 57.9037C64.6983 66.1346 66.1996 75.6692 66.7133 84.8747C62.8809 84.6113 59.0223 87.3374 56.2172 89.6289C52.3586 92.7632 49.8695 96.8194 49.9222 101.93C50.0144 112.215 60.4973 116.034 69.2945 115.56C78.9213 115.046 88.0346 109.252 90.629 99.585C93.0258 90.7088 91.9591 78.0134 80.9363 78.6982Z" fill="#000200"/>
<path d="M175.19 94.4372C175.124 94.4372 175.045 94.424 174.979 94.3977C174.623 94.2792 174.439 93.8973 174.558 93.5417C177.626 84.4943 180.234 73.985 179.088 72.7603C178.798 72.4574 178.561 72.3257 178.39 72.3652C176.81 72.7076 174.083 81.0307 172.911 84.5865C172.793 84.942 172.411 85.1264 172.055 85.021C171.7 84.9025 171.515 84.5206 171.621 84.165C174.755 74.6304 176.335 71.4433 178.087 71.0483C178.759 70.9034 179.43 71.1668 180.062 71.8384C182.301 74.2353 177.389 89.3933 175.822 93.9763C175.743 94.266 175.479 94.4372 175.19 94.4372Z" fill="#000200"/>
<path d="M149.365 155.807C144.518 155.807 138.5 150.868 136.735 140.004C133.93 122.817 125.37 110.899 111.963 105.565C111.621 105.434 111.45 105.039 111.582 104.683C111.726 104.341 112.108 104.17 112.464 104.301C126.331 109.832 135.181 122.093 138.065 139.78C139.711 149.854 145.071 154.45 149.365 154.45C149.365 154.45 149.365 154.45 149.378 154.45C153.105 154.45 155.844 151.211 156.713 145.798C157.49 140.952 158.175 134.209 158.899 127.084C160.348 112.782 161.849 97.9927 164.47 93.7916C168.368 87.5625 171.529 82.8346 174.202 82.7556C174.742 82.7424 175.493 82.9136 176.138 83.8092C177.942 86.3509 175.216 91.1577 172.609 94.7398C172.161 95.3588 172.266 96.2016 172.859 96.7021C175.361 98.8223 179.431 103.195 178.416 108.687C178.351 109.055 177.995 109.306 177.626 109.227C177.258 109.161 177.02 108.805 177.086 108.436C177.982 103.603 174.281 99.652 171.99 97.7161C170.857 96.7547 170.646 95.1349 171.516 93.9365C174.729 89.5115 176.046 86.0085 175.045 84.5862C174.729 84.1516 174.452 84.0989 174.255 84.0989C172.095 84.1647 168.065 90.6046 165.655 94.4632C163.179 98.4273 161.625 113.717 160.256 127.216C159.531 134.367 158.847 141.123 158.056 146.009C157.069 152.04 153.75 155.794 149.365 155.807Z" fill="#000200"/>
<path d="M182.907 88.3399C181.907 86.8649 180.195 85.9957 177.521 85.627C177.455 85.6138 177.403 85.627 177.337 85.627C177.31 85.8245 177.284 86.0221 177.258 86.2196C177.231 86.4567 177.205 86.6805 177.192 86.9176C177.245 86.9308 177.284 86.9439 177.337 86.9571C179.602 87.2732 181.011 87.9448 181.788 89.0905C182.749 90.5128 182.815 92.857 181.972 96.2547C181.92 96.4523 181.867 96.6366 181.788 96.8079C181.656 97.1239 181.261 97.8482 180.616 97.6375C179.628 97.3083 178.667 95.1617 179.589 91.4084C179.681 91.0528 179.457 90.6841 179.101 90.5919C178.746 90.4997 178.377 90.7236 178.285 91.0791C177.218 95.4382 178.43 98.3092 180.195 98.9018C180.418 98.9808 180.642 99.0203 180.866 99.0203C181.762 99.0203 182.565 98.4145 183.026 97.3346C183.131 97.1107 183.21 96.8474 183.276 96.5708C184.238 92.7385 184.119 90.1178 182.907 88.3399Z" fill="#000200"/>
<path d="M184.738 98.7824C183.921 98.7824 183.078 98.5058 182.38 97.979C182.077 97.7551 182.025 97.3337 182.249 97.0308C182.472 96.7279 182.894 96.6753 183.197 96.8991C183.842 97.3864 184.685 97.5576 185.343 97.3337C185.831 97.1625 186.147 96.8069 186.278 96.2538C187.148 92.7244 187.055 90.3276 185.976 88.9184C184.896 87.4961 182.775 86.8508 178.904 86.7455C178.535 86.7323 178.232 86.4294 178.245 86.0475C178.258 85.6788 178.206 85.3232 178.548 85.3232C183.355 85.3232 185.686 86.3109 187.042 88.0888C188.399 89.8666 188.57 92.5664 187.582 96.5699C187.332 97.5576 186.7 98.2688 185.791 98.598C185.462 98.7297 185.106 98.7824 184.738 98.7824Z" fill="#000200"/>
<path d="M189.07 99.021C188.148 99.021 187.292 98.3494 186.779 97.2432C186.621 96.9008 186.766 96.5057 187.108 96.3476C187.45 96.1896 187.49 95.9921 187.648 96.3345C187.938 96.9666 188.741 97.6909 189.123 97.6646C189.531 97.6251 189.9 97.1378 190.084 96.374C190.874 93.1738 190.809 90.9745 189.9 89.6576C189.136 88.5645 187.714 87.9324 185.409 87.669C185.04 87.6295 183.881 86.971 183.921 86.6023C183.96 86.2335 185.198 86.2862 185.567 86.3257C188.28 86.6418 190.018 87.4583 191.006 88.8937C192.178 90.5794 192.297 93.0553 191.401 96.7032C191.072 98.0597 190.269 98.9157 189.255 99.0079C189.202 99.021 189.136 99.021 189.07 99.021Z" fill="#000200"/>
<path d="M152.156 187.584C135.958 187.584 127.845 173.822 127.74 173.651C127.556 173.322 127.661 172.914 127.99 172.729C128.32 172.545 128.728 172.65 128.912 172.979C129.36 173.756 140.133 191.944 162.323 184.463C183.71 177.246 185.87 150.802 185.633 131.535C185.501 120.289 186.423 113.282 187.332 106.5C187.701 103.748 188.043 101.14 188.32 98.2819C188.359 97.9131 188.688 97.6234 189.057 97.6761C189.426 97.7156 189.702 98.0448 189.663 98.4136C189.386 101.298 189.044 103.906 188.675 106.684C187.78 113.414 186.858 120.368 186.989 131.522C187.134 142.861 187.543 177.391 162.758 185.741C158.912 187.044 155.37 187.584 152.156 187.584Z" fill="#000200"/>
<path d="M176.797 124.976C171.437 124.976 165.84 123.001 160.072 119.05C159.769 118.839 159.69 118.418 159.901 118.115C160.111 117.812 160.533 117.733 160.836 117.944C169.975 124.199 178.259 125.319 186.174 121.368C186.503 121.197 186.911 121.342 187.082 121.671C187.253 122 187.109 122.408 186.779 122.58C183.553 124.173 180.221 124.976 176.797 124.976Z" fill="#000200"/>
<path d="M176.454 132.866C171.094 132.866 165.497 130.891 159.729 126.94C159.426 126.729 159.347 126.308 159.558 126.005C159.768 125.702 160.19 125.623 160.493 125.834C169.632 132.089 177.916 133.208 185.831 129.258C186.16 129.086 186.568 129.231 186.74 129.561C186.911 129.89 186.766 130.298 186.437 130.469C183.21 132.063 179.878 132.866 176.454 132.866Z" fill="#000200"/>
<path d="M127.819 159.495C129.755 170.333 135.458 181.132 135.458 181.132L128.425 174.613L127.819 159.495Z" fill="#000200"/>
<path d="M119.615 164.143C117.943 167.843 116.033 170.82 108 172.756C107.644 172.848 107.275 172.624 107.183 172.255C107.091 171.887 107.315 171.531 107.684 171.439C115.138 169.648 116.823 167.053 118.39 163.59C119.378 161.39 119.312 160.258 119.075 159.692C118.917 159.31 118.628 159.046 118.193 158.875C117.416 158.572 116.125 160.403 115.006 162.023L114.374 162.918C113.399 164.288 109.883 165.42 103.917 166.29C102.995 166.421 102.06 166.092 101.441 165.394C101.152 165.065 100.941 164.696 100.836 164.288C100.704 163.814 100.691 163.3 100.822 162.813C100.901 162.497 101.191 162.286 101.52 162.312C101.718 162.325 101.929 162.325 102.126 162.325C105.471 162.312 109.185 160.587 109.343 158.875C109.369 158.612 109.29 158.493 109.225 158.401C108.75 157.874 107.117 157.729 105.155 157.69C104.642 157.677 104.102 157.664 103.562 157.664C103.469 157.664 103.39 157.664 103.298 157.664C102.232 157.65 101.073 157.637 99.874 157.598C95.8707 157.44 94.0402 159.968 92.3808 162.918C92.1833 163.261 91.9989 163.616 91.8014 163.959C91.775 164.011 91.7487 164.051 91.7223 164.103C91.3799 164.722 91.0507 165.328 90.6951 165.921C87.6267 171.031 69.782 172.374 64.3826 172.65C62.6047 172.743 60.919 172.795 59.3518 172.795C49.3694 172.795 43.6934 170.872 42.0472 166.961C39.8742 161.759 44.2465 152.751 56.6389 146.325C56.9682 146.153 57.3764 146.285 57.5476 146.614C57.7188 146.944 57.5871 147.352 57.2579 147.523C45.998 153.357 41.3229 161.733 43.2983 166.448C44.9181 170.333 51.9901 171.979 64.3167 171.32C77.8549 170.609 87.7583 168.212 89.5362 165.236C89.905 164.63 90.2474 163.985 90.5898 163.353C90.5898 163.34 90.6029 163.326 90.6029 163.326C90.8137 162.944 91.0244 162.563 91.2351 162.167C92.9603 159.099 95.1464 156.057 99.901 156.254C101.099 156.294 102.245 156.307 103.298 156.32C103.693 156.32 104.062 156.333 104.418 156.333C104.984 156.347 105.511 156.36 105.998 156.373C108.066 156.465 109.475 156.702 110.199 157.505C110.568 157.914 110.713 158.414 110.66 159.007C110.397 161.72 105.906 163.682 102.06 163.682C102.087 163.985 102.218 164.261 102.429 164.498C102.758 164.867 103.219 165.038 103.707 164.959C108.974 164.196 112.556 163.142 113.268 162.141L113.887 161.259C115.441 159.046 116.902 156.952 118.667 157.624C119.444 157.927 120.01 158.467 120.313 159.191C120.8 160.363 120.577 162.036 119.615 164.143Z" fill="#000200"/>
<path d="M108.776 178.814C108.499 178.814 108.249 178.642 108.144 178.379C108.012 178.023 108.196 177.642 108.539 177.51C108.605 177.483 115.387 174.942 118.271 171.649C121.01 168.528 121.353 165.512 119.338 162.431C119.127 162.115 119.219 161.706 119.535 161.496C119.851 161.285 120.26 161.377 120.47 161.693C122.841 165.302 122.446 168.95 119.298 172.545C116.19 176.088 109.316 178.669 109.026 178.774C108.934 178.8 108.842 178.814 108.776 178.814Z" fill="#000200"/>
<path d="M110.014 184.541C109.764 184.541 109.514 184.396 109.408 184.159C109.25 183.817 109.395 183.422 109.724 183.264C109.764 183.237 114.215 181.117 117.718 178.602C120.958 176.271 122.038 172.61 120.681 168.58C120.563 168.224 120.747 167.842 121.103 167.724C121.458 167.605 121.84 167.79 121.959 168.145C123.5 172.715 122.209 177.035 118.508 179.695C114.9 182.289 110.501 184.383 110.317 184.475C110.199 184.528 110.106 184.541 110.014 184.541Z" fill="#000200"/>
<path d="M84.6637 196.882C84.4925 196.882 84.3081 196.817 84.1764 196.685C77.7234 190.061 76.1167 181.145 79.4223 170.175C79.5276 169.819 79.9095 169.622 80.2651 169.727C80.6207 169.832 80.8182 170.214 80.7129 170.57C77.5259 181.171 78.9745 189.402 85.151 195.75C85.4144 196.013 85.4012 196.448 85.1378 196.698C85.0061 196.817 84.8349 196.882 84.6637 196.882Z" fill="#000200"/>
<path d="M77.1564 198.145C76.9852 198.145 76.8008 198.079 76.6691 197.948C70.2161 191.323 68.6094 182.408 71.9149 171.437C72.0203 171.082 72.4022 170.884 72.7578 170.99C73.1133 171.095 73.3109 171.477 73.2055 171.832C70.0185 182.434 71.4672 190.665 77.6436 197.013C77.907 197.276 77.8938 197.71 77.6305 197.961C77.4988 198.079 77.3276 198.145 77.1564 198.145Z" fill="#000200"/>
<path d="M119.431 184.714C117.192 187.361 107.591 190.43 100.401 192.287C99.808 192.445 99.2286 192.589 98.6623 192.721C96.1996 193.327 94.1715 193.735 93.0653 193.893C92.7097 193.946 91.9722 194.091 90.9187 194.288C90.3919 194.394 89.8651 194.486 89.3384 194.591C88.6272 194.723 87.9292 194.855 87.2312 194.973C72.7053 197.594 60.866 198.661 51.226 198.661C30.9055 198.661 20.3304 193.92 14.8388 188.981C9.2813 183.977 6.83174 177.036 7.5824 168.344C11.6386 120.803 74.7861 103.156 81.3182 101.47V101.286C81.7659 101.549 82.2269 101.786 82.6878 102.036C82.6746 102.339 82.4639 102.589 82.161 102.655C64.2769 106.672 12.4419 127.401 8.93885 168.463C8.24087 176.707 10.5324 183.265 15.7606 187.98C23.7413 195.157 42.8502 201.861 88.6535 193.353C89.3252 193.235 90.01 193.103 90.6948 192.971C90.7211 192.971 90.7475 192.958 90.787 192.958C91.8274 192.761 92.5517 192.616 92.9073 192.576C93.9872 192.418 95.4885 192.128 97.24 191.72C97.8063 191.589 98.3858 191.444 98.9916 191.299C106.34 189.468 116.441 186.215 118.416 183.858C120.958 180.842 119.628 178.603 119.562 178.511C119.365 178.195 119.457 177.787 119.773 177.589C120.089 177.392 120.497 177.484 120.695 177.787C120.761 177.905 122.631 180.908 119.431 184.714Z" fill="#000200"/>
</g>
</svg>
